<svg t="1659000179492" class="icon" viewBox="0 0 1076 1024" version="1.1" xmlns="http://www.w3.org/2000/svg" p-id="5251" data-darkreader-inline-fill="" width="200" height="200">
	<path d="M156.205646 676.881356H96.692155L43.270595 382.628881C34.141375 304.648678 40.198595 242.983051 121.493782 242.983051h833.084745c81.416678 0 90.441763 61.665627 78.066984 139.64583L981.983544 676.881356H923.337849L971.93446 395.281356c13.554983-65.778983-1.266983-100.230508-34.711865-100.230509H138.849714c-42.886508 0-44.379119 34.503593-34.711865 100.230509L156.205646 676.881356z m-106.131525 52.102508h975.924067c14.457492 0 28.081898-0.971932 37.523526 10.083797 9.476339 10.899525 14.127729 27.648 12.062373 41.984L1023.551002 1024H52.521307L0.488222 781.051661c-2.082712-14.336 2.60339-31.084475 12.027661-41.984 9.476339-10.882169 23.274305-10.083797 37.558238-10.083797zM871.617172 190.915254h-683.65017l-13.815322-48.353627a15.151729 15.151729 0 0 1 3.575322-14.561627c3.818305-4.165424 9.372203-6.508475 15.412068-6.508475h672.733288c5.918373 0 11.472271 2.343051 15.047593 6.196068 3.766237 4.043932 5.050576 9.320136 3.766237 14.283932L871.617172 190.915254z m-82.857221-121.491525h-516.512542l-10.934237-49.429695a15.898034 15.898034 0 0 1 3.818305-13.919458c3.644746-3.731525 8.903593-6.074576 14.578983-6.074576h500.926915c5.553898 0 10.934237 2.186847 14.405424 6.074576 3.644746 3.679458 5.015864 8.799458 3.991864 13.607051L788.742595 69.423729zM251.663273 416.542373h260.338983a26.033898 26.033898 0 0 1 0 52.067796h-260.338983a26.033898 26.033898 0 0 1 0-52.067796z m17.355932 138.847458h538.033899a26.033898 26.033898 0 0 1 0 52.067796h-538.033899a26.033898 26.033898 0 0 1 0-52.067796z" p-id="5252" fill="#1afa29" data-darkreader-inline-fill="" style="--darkreader-inline-fill:#169a3e;">
	</path>
</svg>
